<svg width="140" height="30" xmlns="http://www.w3.org/2000/svg"><g fill="#FFF" fill-rule="evenodd"><path d="M40.979 15.8129c.7597-.2661 1.5484-.5177 2.3855-.7452a40.9452 40.9452 0 0 1 5.613-1.0693.1452.1452 0 0 0 0-.1936 2.4726 2.4726 0 0 1-.2227-.4838c-1.4419.1677-2.8419.3967-4.2.687-1.2774.271-2.4822.5904-3.6096.9678v.1452a3.45 3.45 0 0 1 .0338.6919zM48.0629 13.258l.6677-.0628a2.2597 2.2597 0 0 1-.0822-.692h-.242a47.5597 47.5597 0 0 0-7.258 1.229 1.4032 1.4032 0 0 1-.0194.3c-.0435.1888-.0967.3726-.1258.5613.513-.1403 1.0355-.2758 1.5774-.4016a50.1532 50.1532 0 0 1 5.4823-.9338zM39.1935 14.5161a.15.15 0 0 0-.0725-.1838 33.8371 33.8371 0 0 0-4.8678 1.8822 21.1065 21.1065 0 0 0-3.7355 2.2258c-1.2725.9678-2.4919 1.9839-3.6338 2.9952-.5904.5226-1.1662 1.0451-1.7613 1.5629a.6435.6435 0 0 1 .208.15.1645.1645 0 0 0 .1307.0484.3145.3145 0 0 1 .3048.0967.5855.5855 0 0 0 .4839.2178h.0387c.6145-.5226 1.1903-1.05 1.7855-1.5774.7984-.7065 1.5774-1.413 2.4193-2.1097a25.0597 25.0597 0 0 1 3.5178-2.4048 27.992 27.992 0 0 1 3.871-1.8097c.387-.1452.779-.2807 1.1806-.421.0387-.2274.0774-.4645.1306-.6726zM38.4048 15h-.0435c0-.0435-.0726-.0823-.0726-.1258 0-.0436.0484-.0774.0774-.1161.0339.0387.0968.0629.1016.1064.0049.0436-.0387.1016-.0629.1355z"/><path d="M37.8339 16.1274a.7161.7161 0 0 1 .0629.0387v.0436c-.0387 0-.0823.0629-.1113.0532a.2661.2661 0 0 1-.0968-.0726l-.1452.063a20.9855 20.9855 0 0 0-3.9725 2.2644c-1.0113.7694-1.9355 1.5484-2.8549 2.342-.7403.6629-1.4226 1.3306-2.129 1.9935a.2177.2177 0 0 1 0 .0533.1645.1645 0 0 1-.1839.1451h-.029l-.75.692-.3484.3096a.6194.6194 0 0 0 .1403.063.3726.3726 0 0 1 .1645.0773.2323.2323 0 0 0 .271.0581.4016.4016 0 0 1 .1645-.0339c.3054.0068.605-.083.8565-.2564a.2177.2177 0 0 1 .2274 0c.092-.0774.1935-.1548.2806-.2323.8081-.687 1.4807-1.3935 2.2452-2.0903.7645-.6968 1.5145-1.3403 2.3177-2.0032a18.4403 18.4403 0 0 1 1.6646-1.2049.179.179 0 0 1-.0871-.1548c0-.1452.1016-.2855.2129-.2855a.15.15 0 0 1 .1645.15.7258.7258 0 0 1 0 .1065c.6484-.4016 1.3597-.7936 2.1193-1.1662 0-.058 0-.1354.029-.1693.0291-.0339.1162 0 .1694 0 .0533 0 .0484.0387.0726.058l.2371-.121.1839-.0773a.4839.4839 0 0 0 .0242-.1645 1.9887 1.9887 0 0 0-.0774-.4113.4548.4548 0 0 1 .0919-.4065c-.3242.0871-.6194.213-.9145.3387zm-9.7694 7.921a.1694.1694 0 0 1-.2274.1113c-.1936-.0532-.2565-.1065-.2613-.2468a.179.179 0 0 1 .2371-.1935.721.721 0 0 1 .179.0677.1839.1839 0 0 1 .0726.2613zM41.3758 12.9968a52.8194 52.8194 0 0 1 5.2307-.929c.7112-.092 1.4516-.1646 2.1629-.2372.0842-.2599.2118-.5036.3774-.721-2.613.2952-5.1726.6581-7.5823 1.1662l-.2274.0532a.9677.9677 0 0 1-.0436.2662.3.3 0 0 0 .0775.3967l.0048.0049zM28.0258 18a3.9242 3.9242 0 0 1-.4161-.0242c-.3194.2323-.629.4839-.9194.7113-1.1226.9242-2.1677 1.8629-3.2613 2.792l-.1838.1596.0387.0726a.8565.8565 0 0 0 .15.2226c.092.1113.1887.2129.2806.3193.092.1065.058.0968.092.1403.0338.0436.1016.1065.1596.0968.5952-.5274 1.171-1.0597 1.7904-1.5774a134.4023 134.4023 0 0 1 3.1741-2.6177c.179-.15.3823-.2904.5759-.4307l-.8517.1403a2.008 2.008 0 0 1-.2951 0L28.0258 18zm-3.7306 3.7742a.1306.1306 0 0 1-.2226 0 .6097.6097 0 0 1-.15-.1839c-.0484-.0968 0-.1693.1548-.1693.068.0225.1344.05.1984.0822a.1694.1694 0 0 1 .0194.271zM39.1016 12.8565c-.8951.2322-1.7661.4838-2.5984.7596-1.2532.4113-2.4193.8516-3.4887 1.3258 0 .1016-.0629.1984-.0968.3a.4016.4016 0 0 1-.237.271.4839.4839 0 0 0-.3049.358 1.0306 1.0306 0 0 1-.087.1985.5952.5952 0 0 0-.0678.15l.1596-.0871.5226-.242a.1694.1694 0 0 1 .1162-.0726 36.0097 36.0097 0 0 1 5.8064-2.1822.1742.1742 0 0 1-.1113-.0532.2177.2177 0 0 1 0-.2033 1.229 1.229 0 0 1 .2468-.2274.8855.8855 0 0 1 .1161-.0629c.1065-.0629.1113-.1161.029-.2129l-.0048-.0193zm-4.171 1.9645c-.0338 0-.0387-.0823-.0629-.121a.2226.2226 0 0 0 .034-.0339c.0435 0 .0967.0242.1209.0533a.5516.5516 0 0 1 .0629.1451.3532.3532 0 0 1-.1549-.0435zM48.7113 18.9532a.9097.9097 0 0 0 .087-.1838.3968.3968 0 0 0-.1693-.421.3435.3435 0 0 1-.1306-.2032c-.7839.2177-1.5387.4548-2.2549.716a21.5129 21.5129 0 0 0-4.2145 2.0662.5129.5129 0 0 0 .1113.4839l.208.208c.063-.0822.121-.1645.1888-.2419.0677-.0774.0968-.1016.1452-.1548.0483.058.1258.1064.1354.1693.0222.141.0368.2832.0436.4258a20.9468 20.9468 0 0 1 3.1935-1.7758 23.6807 23.6807 0 0 1 2.5549-.9677l.1016-.121zm-3.3871.9678c-.0387 0-.0726-.0484-.1113-.0726s0-.0339 0-.0484c0-.0145.0871-.058.121-.0484.0338.0097.0677.063.1016.0968.0339.0339-.0484.0774-.0871.0774l-.0242-.0048zm2.4193-.779c-.1306 0-.1935-.1065-.179-.2565.0145-.15.121-.2613.2226-.2516a.3774.3774 0 0 1 .237.3338c.0243.1258-.087.1936-.2418.179l-.0388-.0048zM41.3855 19.8387l.029.0774A20.763 20.763 0 0 1 43.713 18.75a24.392 24.392 0 0 1 5.0177-1.5823 1.1323 1.1323 0 0 1 0-.4838.3726.3726 0 0 0-.0774-.3678c-.9677.1839-1.8774.3968-2.7629.6436a23.6758 23.6758 0 0 0-4.3548 1.6306l-.4065.2807c0 .0435 0 .087-.029.1355a.4839.4839 0 0 0 0 .2951c.0865.1835.1818.3628.2855.5371zM33.871 21.1935a.1355.1355 0 0 1 0 .2033 3.5226 3.5226 0 0 1-.3436.2516l-.1064-.0968c-.213.1887-.4258.3774-.6436.5613l-.4839.4403a.1839.1839 0 0 1 .0775.0726c.0385.0908.0693.1847.0919.2807 0 .2032-.121.2951-.3145.2419-.0968-.029-.2178-.0387-.2323-.1742a.4839.4839 0 0 1 0-.0823l-.1306.1162a.1016.1016 0 0 1 .0968.1064c0 .1016-.092.1549-.242.1549a.208.208 0 0 1-.1161-.029l-.2323.2128a.15.15 0 0 1 .2323 0c.1376.1106.2456.2536.3145.4162 0 .058.0678.1306.1355.087.0677-.0435.0435-.1064.0387-.1645-.0048-.058-.0532-.116-.0532-.1693a.4839.4839 0 0 1 .0726-.2516c.0629-.0775.1693-.0533.2564 0 .0871.0532.1403.087.2178.1258.15.0774.2516 0 .2951-.1403a.6194.6194 0 0 1 .092-.2759c.1403-.1645.2129-.416.4838-.4306.0339 0 .0726-.0532.0968-.0871.0774-.1306.0532-.1742-.0774-.2564-.1307-.0823-.1355-.1259-.1355-.184a.271.271 0 0 1 .1403-.1886.5468.5468 0 0 1 .5565.0435c.1451.0823.15.1113.0919.2516-.058.1404-.029.15.0435.1742a.2177.2177 0 0 0 .1742-.0532v-.1452c0-.0387-.029-.1693.063-.2274a.9677.9677 0 0 0 .1838-.1306c.0726-.0678.058-.1307-.0387-.1645a1.7032 1.7032 0 0 1-.2032-.0726c-.092-.0484-.0968-.1307 0-.2032a.3.3 0 0 1 .3339-.063.929.929 0 0 0 .8225-.0677.4065.4065 0 0 0 .1984-.2226.392.392 0 0 1 .2516-.2758.1548.1548 0 0 0 .1065-.208c-.029-.15 0-.1936.1306-.2517a.3823.3823 0 0 0 .2904-.3145c0-.1016.0677-.1306.1693-.0822.1016.0484.2274 0 .208-.1645a.5516.5516 0 0 1 0-.2178c.0401-.092.087-.181.1404-.2661a.5371.5371 0 0 1 .2564-.271.329.329 0 0 0 .2033-.2564.5323.5323 0 0 1 .15-.334 17.7 17.7 0 0 0-2.0323 1.3743c-.5468.4742-1.0887.9387-1.6306 1.408zm1.3451-.571c-.1016 0-.1935-.0725-.1838-.1596.0096-.087.087-.1355.1742-.1355a.179.179 0 0 1 .1983.15.1742.1742 0 0 1-.1838.1452h-.0049zM48.6726 14.7726c-.9678.1403-1.9355.3242-2.9032.5274a31.7952 31.7952 0 0 0-4.7371 1.4226v.179c0 .2903-.029.5758-.029.8661a28.0645 28.0645 0 0 1 4.5435-1.587 32.4678 32.4678 0 0 1 3.2129-.6581.9677.9677 0 0 0-.063-.208.6387.6387 0 0 1-.0532-.484l.029-.058zM25.6694 17.008l-.7452.484a20.9952 20.9952 0 0 0-1.8339 1.408c-.4838.4113-.9677.8274-1.4516 1.2387h.0678a.4839.4839 0 0 0 .3387.1065.4839.4839 0 0 1 .3677.4354.15.15 0 0 1-.029.0775c-.0533.1016-.0871.1451-.0726.1838.3774-.3242.75-.6532 1.142-.9677.9677-.813 1.9644-1.6307 3.0628-2.4194a1.7468 1.7468 0 0 1-.358-.271 1.3694 1.3694 0 0 0-.4887-.2757zM32.9032 13.35a.7597.7597 0 0 0 .1113.6.9194.9194 0 0 0 .1016.092c.7742-.3 1.5807-.584 2.4194-.8517a.1645.1645 0 0 1 .15-.0822h.0435l.0775-.0242c1.0838-.3242 2.187-.6387 3.3241-.929a.2516.2516 0 0 0-.0725-.3581.3145.3145 0 0 1-.1162-.2807 54.1161 54.1161 0 0 0-5.8596 1.7371l-.179.0968zM47.5355 20.8065a.5274.5274 0 0 1 .1742.029.3339.3339 0 0 0 .3145-.0387.4161.4161 0 0 1 .242-.0678c.1064 0 .208 0 .2564-.1161.0484-.1161-.029-.1887-.1113-.2516l-.058-.0678a21.3774 21.3774 0 0 0-2.9614 1.4517c-.5177.3048-1.0064.6193-1.4854.9338.1956-.0006.39.0305.5758.092a.75.75 0 0 0 .5951-.029.3435.3435 0 0 1 .1984 0c.1307 0 .2613.0532.3871.058.1258.0048.2177-.0387.179-.2129a.2758.2758 0 0 1 .1258-.329c.073-.059.1526-.1093.2371-.15a.8661.8661 0 0 1 .5855 0 .2516.2516 0 0 1 .1452.15l.3387-.1936a.2468.2468 0 0 1 .0726-.1597c.0967-.0822.087-.15.0387-.2564a.2613.2613 0 0 1 0-.2323c.0339-.0532.1355-.058.208-.0726a1.2774 1.2774 0 0 1 .1404 0c.0967 0 .1742-.0338.1742-.1403a.15.15 0 0 0-.1887-.1645c-.063 0-.1259.029-.1888.0339-.0629.0048-.1548-.0339-.1596-.1258a.1306.1306 0 0 1 .1645-.1403zM24.9194 15.8177a.3097.3097 0 0 1-.1694-.2806.842.842 0 0 0 0-.1065c-.7065.4162-1.3677.842-1.9839 1.2775-.8661.6193-1.6742 1.2532-2.4677 1.887 0 .0678-.0532.1017-.2032.1646l-.0726.058a.0629.0629 0 0 0 0 .092.242.242 0 0 0 .1016.0484.6339.6339 0 0 1 .4403.3193.2129.2129 0 0 1 .0387.2178.1935.1935 0 0 0 0 .1645c.9387-.7694 1.8774-1.5387 2.8694-2.2936.5226-.4016 1.0839-.7887 1.679-1.171a.6339.6339 0 0 1-.0387-.1016.4355.4355 0 0 0-.1935-.2758zm-3.871 3.0242a.1742.1742 0 0 1-.1113-.1064c0-.1065.087-.2032.237-.2032 0 0 .0775.0483.092.0967.0145.0484-.15.242-.2274.213h.0097zM32.4677 11.9903a.3242.3242 0 0 1 .1936.3387.3871.3871 0 0 0 .1064.2758 45 45 0 0 1 5.0758-1.4758l.9678-.2129a2.0758 2.0758 0 0 1-.058-.387c0-.1597-.0291-.2033-.1888-.2468h-.0339c-1.9016.4548-3.721.9677-5.4435 1.5242l-.6194.1838zM16.7323 21.5323a24.3145 24.3145 0 0 1-2.8113 2.0322.7984.7984 0 0 1 .6822.1403.2613.2613 0 0 0 .421-.0967c.0823-.1694.092-.1694.2661-.092a.9677.9677 0 0 0 .3484.0968c.3048-.1984.5952-.4016.8807-.6048l-.0678-.034a.3339.3339 0 0 0 0-.0628h.2178c.1258-.092.2516-.1839.3725-.2807.692-.5419 1.3404-1.0935 1.9887-1.6451a.121.121 0 0 1 0-.092c.034-.1016 0-.1548-.0677-.2274a.329.329 0 0 1-.087-.179.271.271 0 0 0-.1936-.2516.6048.6048 0 0 1-.2178-.1403l-1.7322 1.437zm-.2371.7258c-.0242-.034-.1017-.0775-.1113-.1258-.0097-.0484.087-.1162.1645-.1113.0774.0048.1597 0 .1597.1016s-.0871.1355-.213.1355zm.4838-.2807c-.1258 0-.1742-.0532-.1742-.2226 0-.1693.063-.2274.1694-.2274a.2758.2758 0 0 1 .2468.2758c.0193.1162-.0823.1887-.2178.1887l-.0242-.0145zM17.4871 18.2129c0 .029.0435.0532.0677.0823.0242.029.0726.0774.063.0919a.5371.5371 0 0 1-.1065.1016l-.092-.1016-.0725-.0968c-.7016.571-1.3597 1.1468-2.0758 1.7178-1.0694.8516-2.129 1.708-3.2952 2.5354-.721.513-1.6306.9678-2.4629 1.4517l-.1064.0629h.2854c.087.005.1743.005.2613 0 .2468 0 .329-.1016.3339-.329 0-.0436.0484-.1162.0726-.1162a.1258.1258 0 0 1 .1355.1355c0 .1548.0483.2032.1983.1548a2.1968 2.1968 0 0 0 .392-.1742.6048.6048 0 0 1 .6048-.0387h.0484a24.45 24.45 0 0 0 2.1-1.3113c1.1613-.7548 2.129-1.6016 3.179-2.4338l1.3694-1.1081a.2952.2952 0 0 0-.2468.0435.121.121 0 0 1-.092 0c0-.0338-.0338-.0919 0-.116.034-.0243.0727-.0727.1114-.1017.0841-.046.165-.0977.242-.1548.1112-.092.0918-.1646-.0485-.1984-.1403-.0339-.2516-.029-.3774-.0484-.1258-.0194-.2516 0-.3387-.1113a.0726.0726 0 0 0-.0436-.0242.8371.8371 0 0 1-.1064.0871zm-.2806.813a.5613.5613 0 0 0-.1065-.0291h-.1887a.5806.5806 0 0 1-.1597 0s-.0484-.058-.0435-.0823c.0048-.0242.0532-.0435.0822-.0484a.1935.1935 0 0 1 .1113.0387c.092.0726.15.0436.1887-.058l.029-.0533c.0533-.0629.121-.1548.2033-.1064a.2855.2855 0 0 1 .0822.2129c.0146.1113-.1064.1161-.1983.1258zM31.7903 10.9113a.2323.2323 0 0 0 .1694.2758.4839.4839 0 0 1 .1693.1548c1.8968-.629 3.871-1.2 5.9758-1.7225h.034a.4839.4839 0 0 0-.121-.1404c-.242-.1693-.242-.2225-.034-.4258.0678-.0629.0678-.121 0-.179-2.1435.5855-4.2677 1.1758-6.2903 1.8435a.2177.2177 0 0 1 .0968.1936zm.7307-.2661c.0725 0 .1887.1016.1693.1645-.0193.0629-.0677.0822-.092.1064-.1257 0-.1935-.0629-.179-.1596a.1548.1548 0 0 1 .1017-.1113zM19.8 17.6903a.1355.1355 0 0 0-.0823.0968c.3388-.2661.6726-.5371 1.0162-.8032a28.021 28.021 0 0 1 3.658-2.3323.2952.2952 0 0 1 .029-.1355.3.3 0 0 0 0-.3967.2516.2516 0 0 1 0-.271 1.0935 1.0935 0 0 0 .063-.1597c-.9678.513-1.9355 1.0355-2.8113 1.5726-.663.4064-1.2871.8226-1.8871 1.2435a.9677.9677 0 0 0 .121.1646.242.242 0 0 1 0 .3483c-.1549.1355-.1597.2081-.0242.363.1354.1548.116.2225-.0823.3096zM28.4323 10.2677a.1645.1645 0 0 0 .0483 0v-.029l-.0483.029zM6.0097 24.1935a.5468.5468 0 0 1 .5855-.058c.1695.0554.3448.091.5225.1064a.1742.1742 0 0 0 .1113-.0387c.1162-.0629.2275-.1355.3387-.208a.3677.3677 0 0 1 .3533-.0581c.9387-.5468 1.9355-1.0839 2.7677-1.6597 1.2823-.9048 2.4194-1.8339 3.6145-2.758.508-.4017.9678-.813 1.4516-1.2146a.208.208 0 0 1-.1258.0436c-.1355 0-.2225-.0726-.2225-.1839a.2274.2274 0 0 1 .2322-.2274.1839.1839 0 0 1 .1984.2032.2274.2274 0 0 1-.0484.1355c.1839-.1548.3774-.3097.5758-.4839a.2323.2323 0 0 1 .0484-.15.1452.1452 0 0 1 .121-.0484h.058l.2952-.2274h-.063a.3.3 0 0 0-.3386.0871.1355.1355 0 0 1-.1016.0339c-.1355-.0436-.2662-.1016-.4016-.15a.842.842 0 0 0-.2855-.063 2.7 2.7 0 0 0-.2855.0485l-.992.7742a.2129.2129 0 0 1-.1064.0822l-.2177.1694c-.5323.4161-.9968.8468-1.534 1.2677-.837.6484-1.6354 1.3065-2.5741 1.9355-.9387.629-2.042 1.292-3.0968 1.9355a.2032.2032 0 0 1 .1355.1839c0 .0919-.0968.1596-.2177.1596a.15.15 0 0 1-.1597-.1596.1403.1403 0 0 0 0-.0436l-.6678.4016-.2806.1742c.1355.1307.1597.121.3097-.0097zM37.0935 7.3306l-3.537 1.1565h.0387c0 .029.058.0629.0532.087a.4839.4839 0 0 1-.0774.121c0-.029-.0533-.058-.0581-.087a.4065.4065 0 0 1 .0436-.121l-.8517.2806-.808.2758c.0946.03.1868.0672.2758.1113.1113.0533.1064.121 0 .179-.1065.0581-.213.0485-.2758-.0919l-.063-.179c-.8467.2855-1.6838.571-2.5015.8661.01.0495.01.1005 0 .15a1.3839 1.3839 0 0 0-.0726.1984l.058.029c.0242-.0338.0484-.0725.0775-.1064a.8952.8952 0 0 1 .1838-.1742.8371.8371 0 0 1 .2613-.1113.4548.4548 0 0 1 .213 0c.145.0242.1886.121.1257.2565a.2613.2613 0 0 1 0 .0532c-.0532.1161-.0242.1887.1016.1935h.063l.6241-.2564.0775-.0242a.3387.3387 0 0 1-.0775-.0242.2613.2613 0 0 1-.0725-.329c.0967.0532.1887.15.3.0677a.1839.1839 0 0 0 .0435-.179.6968.6968 0 0 0-.2322-.1258s.0387-.0678.0725-.0774a.1645.1645 0 0 1 .121.0241c.0774.0388.1548.092.2323.1355.0774.0436.1548.0823.1548.179 0 .0968-.0726.1307-.15.1694l-.1016.0726c1.3161-.4452 2.7145-.8565 4.079-1.2774l1.9016-.5855a.9677.9677 0 0 0-.087-.121c-.0678-.1016-.1065-.2226-.1743-.3242a.2613.2613 0 0 1 0-.3193.2613.2613 0 0 0 .0387-.092zM45.3242 5.3468l.1839.092h.029a17.7145 17.7145 0 0 0 1.742-.8807c.3774-.2178.7354-.4404 1.0886-.6678a.1548.1548 0 0 0-.1403-.0193 1.7032 1.7032 0 0 0-.4839.0774.2565.2565 0 0 1-.3241-.0774.4839.4839 0 0 0-.1017-.0968.6484.6484 0 0 1-.3822-.5855.2758.2758 0 0 0-.1887-.2274l-.2033.15a.4258.4258 0 0 0 .0581.1548.4548.4548 0 0 1 .0678.3145.2129.2129 0 0 0 .0725.15.3726.3726 0 0 1 0 .571c-.1306.1016-.1887.1016-.3096 0-.0484-.0435-.0823-.1064-.1355-.1306a.2903.2903 0 0 0-.1984-.029c-.0484 0-.0774.0967-.1016.1548-.0242.058 0 .0774 0 .1113a.3242.3242 0 0 1-.092.358.6726.6726 0 0 0-.1306.1984.3145.3145 0 0 1-.2758.213.8564.8564 0 0 0-.1597.0386c-.0822.029-.092.1065-.0145.1307zM42.9387 6.4452v-.034a.1935.1935 0 0 1 .0387-.2564.421.421 0 0 0 .121-.3242.1355.1355 0 0 0-.213-.1258.2661.2661 0 0 0-.1741.3678.1355.1355 0 0 1-.0871.1935.4452.4452 0 0 1-.421.0387c-.1403-.0725-.242 0-.2129.15a.8516.8516 0 0 1 0 .2952c.2952-.1016.6242-.1984.9484-.3048zM18.6145 15.3726c.0774-.0532.1307-.1452.213-.1742a1.171 1.171 0 0 0 .4064-.2613c.121-.1161.237-.092.329.0532a.421.421 0 0 1 .0677.1984.9677.9677 0 0 0 0 .2903c.8759-.571 1.7952-1.1322 2.8017-1.6693a48.4846 48.4846 0 0 1 2.458-1.2242c.0794-.23.22-.4341.4065-.5903a.8177.8177 0 0 0 .3726-.484.3968.3968 0 0 1 .0967-.1596c-.4838.2032-.9677.4016-1.3984.6097-1.3451.6242-2.6516 1.2629-3.8274 1.9355l-.7016.4161c.0498.0653.0935.1349.1307.208a.1887.1887 0 0 1 0 .1597c-.0242.034-.0968.034-.15.034-.0533 0-.2081-.034-.3146-.0436-.1064-.0097-.0919-.0339-.0919-.0775-.3242.2033-.6435.4065-.9677.6146v.121c.008.0408.0227.08.0435.116a.392.392 0 0 0 .1258-.0725zM19.1274 13.7274l.4839-.2806a.4839.4839 0 0 0-.0436-.063c-.1112-.1354-.029-.2757.1404-.2854a.45.45 0 0 1 .1548.0242c.0726.0242.1161.058.1258.1016.4839-.271.9678-.542 1.4758-.8032 1.0839-.5516 2.25-1.0839 3.45-1.5968 1.408-.6048 2.8694-1.1855 4.3549-1.7565l.5419-.1983c.7742-.2855 1.587-.5517 2.3661-.8323 1.3161-.4839 2.6565-.9339 3.9339-1.4226a1.5677 1.5677 0 0 1-.1548-.0822c-.184-.1307-.2178-.2081-.0968-.392a.1742.1742 0 0 0 0-.2226l-.0532-.1112a.1887.1887 0 0 0-.2178-.0871c-.1016.0241-.15.0338-.1887 0l-.2226.087c-1.7903.7549-3.7258 1.4807-5.6274 2.2259-1.3258.5225-2.6952 1.0354-3.9774 1.5774-1.2.5097-2.3516 1.0355-3.4549 1.5774-.5177.2564-1.021.508-1.5242.7694l-.0338.058h-.0484c-.3436.179-.6726.363-1.0065.542a.208.208 0 0 1-.029.0967c-.092.1307-.2129.242-.3193.3678a.2806.2806 0 0 0-.0871.1548c-.0018.1461.0112.292.0387.4355a.6097.6097 0 0 1 .0193.1161zm16.2194-7.858c.0677 0 .1161.1064.1451.1403 0 .1451-.0774.2226-.1838.2226-.1065 0-.2033-.0823-.1984-.1646.0048-.0822.1645-.2274.237-.1983zm-.8226.3c.092 0 .1742.0241.179.1354a.1694.1694 0 0 1-.1887.1597.1645.1645 0 0 1-.1597-.1742c0-.058.0581-.121.1694-.121zm-.4258.5564a.4839.4839 0 0 1 .1016 0 .4839.4839 0 0 1 .3968.363.1306.1306 0 0 1-.0823.1112.2032.2032 0 0 1-.1597 0 2.4823 2.4823 0 0 1-.2903-.2129c-.0387-.0339-.1016-.092-.092-.121a.2855.2855 0 0 1 .1259-.1403zM3.7694 24.0339a.3.3 0 0 1 .4838 0 .3677.3677 0 0 0 .0968.0629c.6871-.421 1.3742-.8371 2.0516-1.258.8565-.5517 1.7516-1.0646 2.5549-1.6453.721-.4838 1.3645-1.0112 2.0177-1.5193.8323-.658 1.6355-1.321 2.4677-1.979l.4016-.3146a1.7129 1.7129 0 0 1-.7112-.0822 1.3065 1.3065 0 0 0-.4355 0h-.2613l-.7694.6048c-1.021.7839-1.9887 1.5823-3.0338 2.3613-.9436.692-1.9742 1.3597-3.0097 2.0274-.8323.5371-1.7032 1.0694-2.5645 1.6016a.4355.4355 0 0 1 .2274.1355.2903.2903 0 0 0 .4839.0049zM20.371 10.9839a.2565.2565 0 0 1 .1645.0822c.6387-.3338 1.2968-.6629 1.9839-.9677 2.1677-.992 4.4225-1.9355 6.6387-2.9323 1.6016-.7064 3.237-1.4032 4.7806-2.129l.2323-.1113a.4839.4839 0 0 0-.2371-.087.7935.7935 0 0 1-.4404-.1404.3484.3484 0 0 0-.3145-.063.4839.4839 0 0 1-.5225-.1548 1.021 1.021 0 0 0-.1888-.1258c-.4838.2613-.9677.5226-1.5096.779a456.7708 456.7708 0 0 1-4.1662 1.9936c-1.6887.7984-3.4306 1.5823-5.0806 2.4194l-.4839.2564a.2758.2758 0 0 1-.1064.058l-.0775.034-.1451.0725a.2371.2371 0 0 0-.1016.2807c0 .1064-.029.1645-.1452.1839a1.2435 1.2435 0 0 0-.2951.0967c-.1307.063-.1162.1887-.1065.3049a.179.179 0 0 0 .121.15zm10.3113-5.6613c.0242 0 .1016.0435.1112.0968a.1887.1887 0 0 1-.0629.1645 2.3613 2.3613 0 0 1-.3193.1984.092.092 0 0 1-.1403-.0823.4839.4839 0 0 1 .4113-.3774zm-1.3936.6435c.029 0 .063.0484.1161.0871l-.116.1113-.0969-.1161c.029-.0242.0581-.0726.0968-.0774V5.966zm-7.7758 3.958c.0823 0 .1597.034.1597.121a.1742.1742 0 0 1-.121.1114c-.092 0-.1306-.0533-.1451-.1694.0241-.0194.0629-.063.1064-.063zM1.5823 23.5645c.1004.0122.1994.035.2951.0678l.1161-.0775c.8323-.5322 1.6694-1.0645 2.4823-1.6016 1.1661-.7693 2.3758-1.5338 3.4548-2.3274 1.0017-.7306 1.9355-1.4855 2.8646-2.2306a.9387.9387 0 0 1 0-.1162.2565.2565 0 0 0-.1065-.3145.4839.4839 0 0 1-.092-.0774.2129.2129 0 0 1 .034-.3387.6387.6387 0 0 0 .3193-.4161.8032.8032 0 0 0 .029-.1017c-.5516.4259-1.079.8517-1.6355 1.2775-1.3064.9677-2.5645 1.9935-3.9629 2.9613-1.3983.9677-2.8596 1.9064-4.321 2.8548a.6435.6435 0 0 0 .5227.4403zM19.9258 11.3806l.3387-.1741c-.1693-.0775-.2516.058-.3387.1741zM27.7065 5.4871c.8516-.4452 1.679-.9 2.4677-1.3645a.571.571 0 0 0-.1887.092.6387.6387 0 0 1-.2323.1064 2.5887 2.5887 0 0 0-.3822.0919.9.9 0 0 1-.392.0774 1.4516 1.4516 0 0 0-.4838 0 2.3129 2.3129 0 0 1-.871.063c-.2032 0-.2371-.0775-.1645-.2662a.3097.3097 0 0 0 .0242-.1161c-.9242.5613-1.8968 1.1032-2.8645 1.65-.8226.4838-1.6694.9193-2.521 1.3693a.1065.1065 0 0 1-.0871.0678l-.0823.0242-.208.1112a1.5339 1.5339 0 0 0-.1645.1452.1839.1839 0 0 0 0 .2855c.0483.0532.1016.1016.1451.1597a.1839.1839 0 0 1-.0822.3048.4161.4161 0 0 0-.1404.063.7258.7258 0 0 0-.1306.1644c-.0436.0726-.0774.1549-.121.2323.9678-.4839 1.9887-.992 2.9758-1.4952 1.1807-.5758 2.3565-1.1661 3.5033-1.7661zM.1839 21.571A.2032.2032 0 0 0 .15 21.9c.0339.0435.0774.0823.1161.1258a.9339.9339 0 0 1 .2468.392l1.2726-.8565c.9677-.6484 1.9984-1.2871 2.937-1.9355.9388-.6484 1.7081-1.2677 2.5452-1.9016 1.3017-.9677 2.5452-1.9887 3.9146-2.9613.2806-.2032.571-.4064.8612-.6048a.421.421 0 0 1 .1404-.1355 1.3984 1.3984 0 0 0 .2467-.1694.4548.4548 0 0 0 .1936-.4258.1403.1403 0 0 1 0-.1016c.1597-.1452.2613-.3532.4839-.4306a.2661.2661 0 0 0 .2032-.2662.358.358 0 0 1 .1597-.2903.179.179 0 0 0 .0774-.208v-.0775l-.1597.0968c-1.2726.8032-2.4629 1.6306-3.6097 2.4629-1.2629.9145-2.4193 1.8532-3.6484 2.7677-1.408 1.0065-2.8693 2.0468-4.3258 3.0678-.4838.358-1.0258.7064-1.5483 1.0597-.0242.0193-.0388.0387-.0726.0629zm8.4629-5.6758c.0726 0 .1548 0 .1451.1113-.0096.1112-.0725.0822-.1354.1451l-.1597-.15a.45.45 0 0 1 .15-.1064zM30.8226 3.7258a.8468.8468 0 0 1 .1451-.0774c-.0629-.0242-.1112 0-.1451.0774zM25.9016 3.571a.2903.2903 0 0 0-.237.1403.871.871 0 0 1-.121.1403.2177.2177 0 0 0-.0581.058l.5274-.3531-.1113.0145zM.3484 20.3226c.7161-.4839 1.4516-.9678 2.1193-1.4516 1.0065-.721 1.9355-1.4516 2.9275-2.1823 1.2822-.9677 2.5306-1.9355 3.871-2.9032 1.1273-.813 2.2886-1.621 3.537-2.4194.629-.4016 1.2871-.7935 1.9355-1.1903v-.1355c0-.2129.0678-.2516.2758-.237a.2177.2177 0 0 0 .2274-.15c.107-.256.285-.476.513-.634a1.0597 1.0597 0 0 0 .3677-.416 3.9242 3.9242 0 0 1 .3048-.484.6242.6242 0 0 0 .0871-.1548c-.9193.5468-1.8435 1.0887-2.729 1.6452-1.0403.6435-2.0323 1.3016-3.0242 1.9645-.8661.5758-1.713 1.1613-2.5403 1.7468-.6436.4548-1.2533.9193-1.8678 1.3838-1.2677.9678-2.5113 1.9355-3.7984 2.9033-.5467.416-1.1032.8129-1.6838 1.2096a.421.421 0 0 0 .1693.271c.0387 0 .0484.1258.029.1645-.0193.0387-.1016.063-.1596.0678-.058.0048-.0823-.029-.1162-.0581-.1258-.087-.208-.0774-.3241.0436a.2371.2371 0 0 0 0 .3241.4306.4306 0 0 1 0 .571l-.121.121zm14.5161-11.129c.0339 0 .0823.0435.1549.0822-.0775.0532-.1162.1016-.1597.1065-.0436.0048-.0871-.063-.0823-.0871a.1452.1452 0 0 1 .0823-.1017h.0048zM26.671 3.1161l-.0581-.0726c0-.0387-.0823-.058-.15-.0967v.3048c.0726-.0435.15-.087.208-.1355zM11.9177 8.3661c-1.0258.692-2.0467 1.3839-3.0435 2.0807-.9968.6967-2.0032 1.4032-2.9613 2.1338a96.7834 96.7834 0 0 0-1.6935 1.2823c0 .0677-.0242.1065-.1597.1936l-.0484.0338c-.0678.0387-.1065.0532-.1403.0436l-.7742.571a.1984.1984 0 0 0 .1355.0725l.1887.0339c.0919.0339.1355.121.0822.1839a2.3661 2.3661 0 0 1-.3193.3048.2371.2371 0 0 1-.1742.0242c-.2952-.0436-.3968 0-.4839.3097a.5565.5565 0 0 1-.1355.208c-.179.1742-.1838.2371 0 .4162a.1161.1161 0 0 1 0 .0338.0532.0532 0 0 0 0 .029c-.0435 0-.092 0-.1355-.0435-.0435-.0435-.1838-.0339-.2129.0532a.8226.8226 0 0 0-.1064.513l.1306-.092c.7258-.5322 1.413-1.079 2.1242-1.6113a167.1886 167.1886 0 0 1 2.4871-1.8822c.9339-.6823 1.863-1.3694 2.8355-2.042.8565-.5951 1.7661-1.1758 2.6613-1.7613.8032-.5177 1.6161-1.0403 2.4193-1.558.8033-.5178 1.7855-1.113 2.6662-1.6742.0484-.0968.092-.1984.1403-.2952a.6339.6339 0 0 1 .1016-.1306c.1452-.1549.1113-.3-.1016-.3436a.7597.7597 0 0 0-.2274.0242 1.142 1.142 0 0 1-.2516.0436c-.179 0-.363-.0533-.542-.0726h-.0774l-1.4951 1.0113c-.9388.6242-1.9307 1.2822-2.8888 1.9064zM4.6161 12.1694a.15.15 0 0 0-.0774.1016l.208-.15a.692.692 0 0 0-.1306.0484zM9.3532 7.442c-.8274.6048-1.6742 1.2-2.4967 1.8a83.3541 83.3541 0 0 0-1.1807.8854.4161.4161 0 0 0-.0242.421c.0339.0774.0436.1161-.0387.1742-.0823.058-.092.1403-.15.1984-.1452.158-.2952.3193-.45.4838 0 0-.0774 0-.1161.029-.1549 0-.1936.0872-.1065.2275s.1258.1645.1839.2468a.15.15 0 0 1 .0339.058l2.0564-1.5048c.8226-.5952 1.6452-1.1903 2.492-1.7855 1.166-.8129 2.3564-1.6306 3.5322-2.4435.871-.6097 1.742-1.2194 2.5984-1.8388l.208-.1548v-.0339a.2468.2468 0 0 1 .1597-.3629.392.392 0 0 0 .15-.0725.2758.2758 0 0 0 .0726-.179c0-.0388-.092-.0727-.15-.0969-.058-.0241-.1839-.0532-.2613-.0967a.1403.1403 0 0 0-.2129.0387 1.1806 1.1806 0 0 1-.1064.15.2565.2565 0 0 1-.329.0339.1935.1935 0 0 1-.0872-.2662.5468.5468 0 0 0 .029-.1548l-2.85 2.1097c-.9919.6967-1.9693 1.4177-2.9564 2.1338zM3.9339 8.6274H5.158c.2079-.012.4163-.012.6242 0h.0387l.6725-.5129 2.463-1.8629 2.008-1.529L12.9 3.271l.0677-.0775c.0376-.0532.07-.1099.0968-.1693l-.0339-.029h-.0774a.4839.4839 0 0 1-.3435.0629.6048.6048 0 0 0-.2613.029.3194.3194 0 0 1-.2952-.029.3484.3484 0 0 0-.2951-.0387.842.842 0 0 1-.363 0 .6726.6726 0 0 0-.2951 0c-.6097.4838-1.2242.9677-1.8435 1.4516-1.1275.8806-2.2742 1.7516-3.3871 2.6322L3.9339 8.6274zM2.579 6.6871l-.9677.8032.1887.058c.1742.063.208.1114.179.2952-.029.184.0242.2033.1355.2275a.75.75 0 0 0 .1403 0 .5371.5371 0 0 1 .3436.1161c.5129-.4113 1.0161-.8274 1.5339-1.2387l2.516-1.9839 2.3323-1.8677a1.558 1.558 0 0 1-.8032 0h-.0629c-.3339 0-.6726 0-1.0064.0338a.8323.8323 0 0 1-.1597 0l-.2274.184-2.492 2.008-1.65 1.3645zM.7984 6.3339a.3484.3484 0 0 0 .0532.1645v.0339l.7258-.6146c.5565-.4838 1.1032-.9387 1.6645-1.408l1.2678-1.0403c-.271-.0436-.5565.058-.8178-.063a.208.208 0 0 0-.121 0c-.0919 0-.1596.063-.1354.1742A.2226.2226 0 0 1 3.3 3.842c-.242.1404-.2371.1452-.029.3242.0338.0242.0725.0823.0629.1065a.1548.1548 0 0 1-.1065.0822.6968.6968 0 0 1-.4839-.0919.5565.5565 0 0 0-.1983-.0823 7.2828 7.2828 0 0 0-.5517-.0919l-.116-.0339-.7791.6484c0 .1307-.0774.1887-.1936.1694L0 5.6565a.75.75 0 0 0 .45.2516c.3145.029.3629.1064.3484.4258zM2.158 4.7323a.1016.1016 0 0 1 .1596.058c-.0532.0532-.1112.092-.179.029-.0677-.0628 0-.0774.0194-.087zM16.7565 23.1097c.0387.1258.2419.2468.3435.2032.1016-.0435.0629-.0726.092-.1064.029-.034-.0726-.0871-.1162-.092a2.308 2.308 0 0 0-.3193-.0048zM19.5532 17.0323a6.121 6.121 0 0 0-.4838-.3871.2274.2274 0 0 0-.3581.2177c0 .1065.1016.058.1597.0871.1356.0614.2666.1325.3919.2129.1016.0726 0 .1887 0 .2806 0 .092.0532.1452.208.1597.155.0145.1452-.0435.1452-.1403v-.237a.4839.4839 0 0 0-.0629-.1936zM25.3548 23.3468v-.092h-.029a.3194.3194 0 0 0-.0677.0968s.0338.0532.0484.0774c.0145.0242.0387-.0484.0483-.0822zM18.75 15.571a.1258.1258 0 0 0-.1113.0629.3677.3677 0 0 0 .3048.4161.542.542 0 0 0 .1694-.0823c.0387-.029.063-.121.0436-.1451a.5806.5806 0 0 0-.4065-.2516zM26.5113 10.829a.8226.8226 0 0 0-.1403-.0822s-.0436.0338-.063.0532c-.0193.0194.0533.0677.0823.0774.029.0097.058-.0193.121-.0484zM.929 4.4177c.0242 0 .0726-.0387.0823-.0677.0097-.029-.0774-.179-.1742-.179s-.1548 0-.15.0967c.0048.0968.1306.1162.242.15z"/><path d="M53.7097 4.5726c-2.0226 0-3.842.7839-4.7855 2.129l-.0871-.1403v-.0387c.0484-.2758-.0968-.542.058-.8032a.3339.3339 0 0 0 0-.3484l-.0628.029h-.1355a28.2048 28.2048 0 0 1-4.229 1.679c-.9968.2952-2.013.5758-3.0388.8468v.2516c.0087.0836.0249.1662.0484.2468a.5661.5661 0 0 1 0 .358l1.979-.4838c1.7855-.4355 3.7017-.9242 5.3226-1.4516v1.0451c-1.2725.3242-2.9032.7258-4.0887.9678l-3.2806.7064a.3968.3968 0 0 1-.029.208.2661.2661 0 0 0 .029.2856.3387.3387 0 0 1 .0774.2226l2.308-.484c1.4517-.3 3.3872-.5854 4.984-.8709v.75l-3.0726.4839c-1.4517.2468-2.9033.4839-4.3065.7887 0 .2226-.0435.4403-.058.6629 1.7757-.3629 3.629-.658 5.5112-.929l2.4194-.3436v-.2274a3.0871 3.0871 0 0 1 .3532-.4016 4.9306 4.9306 0 0 1 2.4194-.663c2.0177 0 3.15 1.2388 3.15 3.2565V22.2h5.1V11.729C60.3 7.258 57.9 4.5726 53.7097 4.5726zM68.6565 17.371l1.437-1.5339L75.092 22.2h5.7484l-7.4613-9.4452L80.2597 4.95H74.337l-5.6806 6.571V0h-5.1v22.2h5.1zM87.8952 23.7774a1.8194 1.8194 0 0 1-.7162 1.0936 2.5065 2.5065 0 0 1-1.4516.3774 6.9194 6.9194 0 0 1-2.0903-.2758v4.4177a9.808 9.808 0 0 0 2.2597.2371c1.9355 0 3.4935-.5129 4.621-1.5048a8.0806 8.0806 0 0 0 1.9838-3.1839L100.1613 4.95H94.95l-4.2484 11.9855L86.013 4.9548h-5.2064l7.3596 18.0726-.271.75zM100.7323 16.4855c-1.697 0-3.0726 1.3756-3.0726 3.0726 0 1.6809 1.3626 3.0435 3.0435 3.0435a2.9613 2.9613 0 0 0 1.2097-.2564c1.355-.5596 2.1248-1.9996 1.8373-3.4372-.2875-1.4375-1.552-2.4707-3.018-2.466v.0435zM118.4661 10.679l3.1452-3.1113A9.8226 9.8226 0 0 0 107.7 7.0161a8.6613 8.6613 0 0 0-2.758 6.5323 8.613 8.613 0 0 0 2.758 6.5032 9.5177 9.5177 0 0 0 6.7742 2.6032 9.4065 9.4065 0 0 0 7.1468-3.1742l-3.1452-3.1112a5.3855 5.3855 0 0 1-4.0016 1.766 4.4032 4.4032 0 0 1-3.2032-1.2967 4.4564 4.4564 0 0 1-1.3162-3.2903 4.529 4.529 0 0 1 1.2968-3.3097 4.3548 4.3548 0 0 1 3.2226-1.3161 5.3855 5.3855 0 0 1 3.992 1.7564zM130.6306 17.7l8.8113-9.2274V4.9452h-15.4548V9.329h8.5452l-9.479 9.721v3.1452h16.7322v-4.379h-9.2661z"/></g></svg>